<svg height="512pt" viewBox="0 -49 512.00094 512" width="512pt" xmlns="http://www.w3.org/2000/svg"><path d="m497 384.996094h-36.472656v-185.816406l27.820312 19.640624c2.628906 1.855469 5.648438 2.75 8.640625 2.75 4.707031 0 9.34375-2.210937 12.265625-6.351562 4.777344-6.769531 3.164063-16.128906-3.601562-20.90625l-78.125-55.164062v-86.441407c0-17.394531-14.15625-31.550781-31.558594-31.550781h-21.546875c-17.398437 0-31.558594 14.15625-31.558594 31.550781v26.660157l-103.378906-72.992188c-.785156-.558594-1.59375-1.078125-2.414063-1.558594-.308593-.183594-.617187-.359375-.929687-.527344-.105469-.058593-.207031-.113281-.3125-.171874-12.023437-6.414063-27.066406-5.304688-38.019531 3.140624-.09375.074219-.1875.148438-.28125.222657l-146.425782 115.402343v.003907l-45.386718 35.765625c-6.503906 5.128906-7.625 14.5625-2.496094 21.070312 5.128906 6.507813 14.5625 7.625 21.066406 2.496094l26.816406-21.132812v223.910156h-36.101562c-8.28125 0-15 6.71875-15 15.003906s6.71875 15 15 15h482c8.285156 0 15-6.714844 15-15s-6.714844-15.003906-15-15.003906zm-124.136719-332.289063c0-.851562.699219-1.546875 1.558594-1.546875h21.546875c.859375 0 1.558594.695313 1.558594 1.546875v65.257813l-24.664063-17.414063zm-242.210937 332.289063v-73.058594h44.765625v73.058594zm128.933594 0v-26.585938h120.609374v26.585938zm120.609374-56.589844h-120.609374v-16.46875h120.609374zm30 56.589844v-82.851563c0-11.144531-9.0625-20.210937-20.203124-20.210937h-140.199219c-11.140625 0-20.207031 9.066406-20.207031 20.210937v82.851563h-24.167969v-82.851563c0-11.144531-9.0625-20.210937-20.207031-20.210937h-64.355469c-11.140625 0-20.203125 9.066406-20.203125 20.210937v82.851563h-19.550782v-247.554688l134.992188-106.394531c1.785156-1.40625 4.230469-1.472656 6.089844-.164063l208.347656 147.113282v207zm0 0"/><path d="m195.863281 82.550781c-5.894531-2.855469-12.742187-2.105469-17.882812 1.953125l-70.890625 56.027344c-4.09375 3.234375-6.4375 8.078125-6.4375 13.292969v92.171875c0 8.96875 7.292968 16.265625 16.261718 16.265625h72.242188c8.96875 0 16.261719-7.296875 16.261719-16.265625v-148.199219c0-6.550781-3.660157-12.390625-9.554688-15.246094zm-20.445312 42.21875v58.070313h-44.765625v-22.6875zm-44.765625 107.488281v-19.410156h44.765625v19.410156zm0 0"/><path d="m403.304688 181.203125-148.207032-104.375c-4.980468-3.46875-11.414062-3.878906-16.792968-1.070313-5.378907 2.808594-8.71875 8.324219-8.71875 14.394532v155.292968c0 8.921876 7.257812 16.183594 16.179687 16.183594h148.25c8.921875 0 16.179687-7.261718 16.179687-16.183594v-50.960937c0-5.285156-2.574218-10.242187-6.890624-13.28125zm-143.71875-64.515625 93.9375 66.152344h-93.9375zm0 114.9375v-18.777344h120.609374v18.777344zm0 0"/></svg>