<?xml version="1.0" encoding="utf-8"?>
<!-- Generator: Adobe Illustrator 22.1.0, SVG Export Plug-In . SVG Version: 6.00 Build 0)  -->
<svg version="1.1" id="Слой_1" xmlns="http://www.w3.org/2000/svg" xmlns:xlink="http://www.w3.org/1999/xlink" x="0px" y="0px"
	 viewBox="0 0 452 516" style="enable-background:new 0 0 452 516;" xml:space="preserve">
<style type="text/css">
	.st0{fill:none;stroke:#33385E;stroke-width:16;stroke-miterlimit:10;}
	.st1{fill:#FBFCF5;}
	.st2{fill:#CCE7F4;}
	.st3{fill:none;stroke:#33385E;stroke-width:11;stroke-miterlimit:10;}
	.st4{fill:#18282B;stroke:#33385E;stroke-width:12;stroke-miterlimit:10;}
	.st5{fill:#33385E;}
	.st6{fill:#78C0EF;stroke:#33385E;stroke-width:16;stroke-miterlimit:10;}
	.st7{fill:#18282B;stroke:#33385E;stroke-width:10;stroke-miterlimit:10;}
	.st8{fill:none;stroke:#33385E;stroke-width:16;stroke-linecap:round;stroke-miterlimit:10;}
</style>
<line class="st0" x1="178" y1="516" x2="178" y2="514"/>
<rect x="219" y="426" class="st1" width="168" height="88"/>
<polygon class="st1" points="417,434 197,434 197,339 371,339 "/>
<rect x="239" y="439" class="st2" width="146" height="16"/>
<g>
	<g>
		<polygon class="st1" points="244.5,515.3 25.4,515.3 67.3,205.4 199.4,205.4 		"/>
	</g>
	<polygon class="st2" points="67.3,205.4 66,214.9 66,214.9 157.5,215 167.6,515.3 244.5,515.3 199.4,205.4 	"/>
</g>
<ellipse class="st1" cx="133.3" cy="26.8" rx="15.9" ry="14.8"/>
<rect x="38.3" y="93.3" class="st1" width="192.3" height="22.6"/>
<g>
	<path class="st1" d="M208.2,104.6c0.3-2.3,0.4-4.7,0.4-7c0-38.4-33.5-69.5-74.7-69.5S59.1,59.2,59.1,97.6c0,2.4,0.1,4.7,0.4,7
		H208.2z"/>
	<path class="st2" d="M150.1,29.6c14,16.4,18.8,53.1,19.5,63.7h38.8C206.5,62,182.2,36.2,150.1,29.6z"/>
</g>
<line class="st0" x1="198.4" y1="187.4" x2="198.4" y2="186.3"/>
<polyline class="st0" points="201.1,187.4 246.2,496.2 246.2,497.3 "/>
<polyline class="st0" points="65.1,205.4 20,514.2 20,515.3 "/>
<line class="st3" x1="135.2" y1="115.9" x2="135.2" y2="204.8"/>
<line class="st4" x1="56.4" y1="253.7" x2="111.8" y2="205.6"/>
<line class="st4" x1="205.9" y1="220.4" x2="36.2" y2="378.7"/>
<path class="st5" d="M95.8,429.6H75.9v-40.7c0-5.7,4.6-10.3,10.3-10.3h0c5.3,0,9.6,4.3,9.6,9.6V429.6z"/>
<path class="st0" d="M34.2,115.9h199.8V90.7H211c-9.4-32.2-29-53.3-60.7-61.2c-0.4-2.7-1.5-5.1-3.1-7.1c-6.8-9-20.6-9.3-27.4-0.2
	c-1.7,2.2-2.7,4.8-2.4,7.4C80.3,39,64.2,62.4,59.3,93.3l-25,0.1V115.9z"/>
<g>
	<g>
		<polygon class="st1" points="245.5,515.3 26.4,515.3 68.3,205.4 200.4,205.4 		"/>
	</g>
	<polygon class="st2" points="68.3,205.4 67,214.9 67,214.9 158.5,215 168.6,515.3 245.5,515.3 200.4,205.4 	"/>
</g>
<g>
	<rect x="65.2" y="108.2" class="st6" width="139" height="96.4"/>
	<rect x="45.8" y="182.2" class="st0" width="178.8" height="22.6"/>
</g>
<ellipse class="st1" cx="133.3" cy="26.8" rx="15.9" ry="14.8"/>
<rect x="38.3" y="93.3" class="st1" width="192.3" height="22.6"/>
<g>
	<path class="st1" d="M208.2,104.6c0.3-2.3,0.4-4.7,0.4-7c0-38.4-33.5-69.5-74.7-69.5S59.1,59.2,59.1,97.6c0,2.4,0.1,4.7,0.4,7
		H208.2z"/>
	<path class="st2" d="M150.1,29.6c14,16.4,18.8,53.1,19.5,63.7h38.8C206.5,62,182.2,36.2,150.1,29.6z"/>
</g>
<polygon class="st2" points="169.7,89.3 170.7,111.9 230.6,111.9 230.6,89.3 "/>
<line class="st0" x1="198.4" y1="187.4" x2="198.4" y2="186.3"/>
<polyline class="st0" points="65.1,205.4 20,514.2 20,515.3 "/>
<line class="st3" x1="135.2" y1="115.9" x2="135.2" y2="204.8"/>
<line class="st4" x1="56.4" y1="253.7" x2="111.8" y2="205.6"/>
<line class="st4" x1="205.9" y1="220.4" x2="36.2" y2="378.7"/>
<path class="st5" d="M95.8,429.6H75.9v-40.7c0-5.7,4.6-10.3,10.3-10.3h0c5.3,0,9.6,4.3,9.6,9.6V429.6z"/>
<polyline class="st7" points="231,391.9 105,519 231,391.9 "/>
<path class="st0" d="M34.2,115.9h199.8V90.7H211c-9.4-32.2-29-53.3-60.7-61.2c-0.4-2.7-1.5-5.1-3.1-7.1c-6.8-9-20.6-9.3-27.4-0.2
	c-1.7,2.2-2.7,4.8-2.4,7.4C80.3,39,64.2,62.4,59.3,93.3l-25,0.1V115.9z"/>
<line class="st0" x1="251" y1="519" x2="204.1" y2="209.7"/>
<polyline class="st8" points="225,345 370,345 421,434 386.6,434 248,434 "/>
<polyline class="st8" points="385,516 385,462.7 385,434 "/>
<circle class="st1" cx="134.5" cy="36.5" r="13.5"/>
</svg>
