<?xml version="1.0" encoding="utf-8"?>
<!-- Generator: Adobe Illustrator 22.1.0, SVG Export Plug-In . SVG Version: 6.00 Build 0)  -->
<svg version="1.1" id="Слой_1" xmlns="http://www.w3.org/2000/svg" xmlns:xlink="http://www.w3.org/1999/xlink" x="0px" y="0px"
	 viewBox="0 0 438 516" style="enable-background:new 0 0 438 516;" xml:space="preserve">
<style type="text/css">
	.st0{fill:#FBFCF5;}
	.st1{fill:#CCE7F4;}
	.st2{fill:none;stroke:#33385E;stroke-width:16;stroke-miterlimit:10;}
	.st3{fill:none;stroke:#33385E;stroke-width:11;stroke-miterlimit:10;}
	.st4{fill:#18282B;stroke:#33385E;stroke-width:12;stroke-miterlimit:10;}
	.st5{fill:#33385E;}
	.st6{fill:#78C0EF;stroke:#33385E;stroke-width:16;stroke-miterlimit:10;}
	.st7{fill:#18282B;stroke:#33385E;stroke-width:10;stroke-miterlimit:10;}
	.st8{fill:none;stroke:#33385E;stroke-width:16;stroke-linecap:round;stroke-miterlimit:10;}
</style>
<rect x="214.5" y="434" class="st0" width="170.9" height="88"/>
<polygon class="st0" points="415.9,442 192.1,442 192.1,347 369.1,347 "/>
<rect x="234.8" y="447" class="st1" width="148.5" height="16"/>
<g>
	<g>
		<polygon class="st0" points="240.5,523.3 17.5,523.3 60.1,213.4 194.5,213.4 		"/>
	</g>
	<polygon class="st1" points="60.1,213.4 58.8,222.9 58.8,222.9 151.9,223 162.2,523.3 240.5,523.3 194.5,213.4 	"/>
</g>
<ellipse class="st0" cx="127.3" cy="34.8" rx="16.1" ry="14.8"/>
<rect x="30.6" y="101.3" class="st0" width="195.7" height="22.6"/>
<g>
	<path class="st0" d="M203.5,112.6c0.3-2.3,0.4-4.7,0.4-7c0-38.4-34-69.5-76-69.5s-76,31.1-76,69.5c0,2.4,0.1,4.7,0.4,7H203.5z"/>
	<path class="st1" d="M144.4,37.6c14.2,16.4,19.1,53.1,19.9,63.7h39.5C201.8,70,177,44.2,144.4,37.6z"/>
</g>
<line class="st2" x1="193.5" y1="195.4" x2="193.5" y2="194.3"/>
<polyline class="st2" points="196.3,195.4 242.2,504.2 242.2,505.3 "/>
<polyline class="st2" points="57.9,213.4 12,522.2 12,523.3 "/>
<line class="st3" x1="129.2" y1="123.9" x2="129.2" y2="212.8"/>
<line class="st4" x1="49.1" y1="261.7" x2="105.4" y2="213.6"/>
<line class="st4" x1="201.2" y1="228.4" x2="28.5" y2="386.7"/>
<path class="st5" d="M89.1,437.6H68.9v-40.7c0-5.7,4.6-10.3,10.3-10.3h0.3c5.3,0,9.6,4.3,9.6,9.6V437.6z"/>
<path class="st2" d="M26.5,123.9h203.3V98.7h-23.5c-9.5-32.2-29.5-53.3-61.8-61.2c-0.4-2.7-1.5-5.1-3.1-7.1c-7-9-20.9-9.3-27.8-0.2
	c-1.7,2.2-2.7,4.8-2.4,7.4C73.4,47,57,70.4,51.9,101.3l-25.5,0.1V123.9z"/>
<g>
	<g>
		<polygon class="st0" points="241.5,523.3 18.5,523.3 61.1,213.4 195.6,213.4 		"/>
	</g>
	<polygon class="st1" points="61.1,213.4 59.8,222.9 59.8,222.9 152.9,223 163.2,523.3 241.5,523.3 195.6,213.4 	"/>
</g>
<g>
	<rect x="58" y="116.2" class="st6" width="141.4" height="96.4"/>
	<rect x="38.2" y="190.2" class="st2" width="181.9" height="22.6"/>
</g>
<ellipse class="st0" cx="127.3" cy="34.8" rx="16.1" ry="14.8"/>
<rect x="30.6" y="101.3" class="st0" width="195.7" height="22.6"/>
<g>
	<path class="st0" d="M203.5,112.6c0.3-2.3,0.4-4.7,0.4-7c0-38.4-34-69.5-76-69.5s-76,31.1-76,69.5c0,2.4,0.1,4.7,0.4,7H203.5z"/>
	<path class="st1" d="M144.4,37.6c14.2,16.4,19.1,53.1,19.9,63.7h39.5C201.8,70,177,44.2,144.4,37.6z"/>
</g>
<polygon class="st1" points="164.3,97.3 165.4,119.9 226.2,119.9 226.2,97.3 "/>
<line class="st2" x1="193.5" y1="195.4" x2="193.5" y2="194.3"/>
<polyline class="st2" points="57.9,213.4 12,522.2 12,523.3 "/>
<line class="st3" x1="129.2" y1="123.9" x2="129.2" y2="212.8"/>
<line class="st4" x1="49.1" y1="261.7" x2="105.4" y2="213.6"/>
<line class="st4" x1="201.2" y1="228.4" x2="28.5" y2="386.7"/>
<path class="st5" d="M89.1,437.6H68.9v-40.7c0-5.7,4.6-10.3,10.3-10.3h0.3c5.3,0,9.6,4.3,9.6,9.6V437.6z"/>
<polyline class="st7" points="226.7,399.9 98.5,527 226.7,399.9 "/>
<path class="st2" d="M26.5,123.9h203.3V98.7h-23.5c-9.5-32.2-29.5-53.3-61.8-61.2c-0.4-2.7-1.5-5.1-3.1-7.1c-7-9-20.9-9.3-27.8-0.2
	c-1.7,2.2-2.7,4.8-2.4,7.4C73.4,47,57,70.4,51.9,101.3l-25.5,0.1V123.9z"/>
<line class="st2" x1="247" y1="527" x2="199.4" y2="217.7"/>
<polyline class="st8" points="220.6,353 368.1,353 420,442 385,442 244,442 "/>
<polyline class="st8" points="383.4,524 383.4,470.7 383.4,442 "/>
<ellipse class="st0" cx="128.5" cy="44.5" rx="13.7" ry="13.5"/>
</svg>
