<?xml version="1.0" encoding="iso-8859-1"?>
<!-- Generator: Adobe Illustrator 21.0.0, SVG Export Plug-In . SVG Version: 6.00 Build 0)  -->
<svg xmlns="http://www.w3.org/2000/svg" xmlns:xlink="http://www.w3.org/1999/xlink" version="1.1" id="Capa_1" x="0px" y="0px" viewBox="0 0 512 512" style="enable-background:new 0 0 512 512;" xml:space="preserve" width="512" height="512">
<g>
	<path style="fill:#FFD7A4;" d="M117.293,88.496l-0.847,0.314l-68.601,53.231c-19.293,14.971-30.359,37.564-30.359,61.984v136.316   c0,45.399,36.935,82.333,82.333,82.333h17.473V88.496z"/>
	<polygon style="fill:#00459F;" points="438.863,54.284 442.863,69.33 442.863,420 438.863,457.716 113.723,457.716 109.723,420    109.723,69.33 113.723,54.284  "/>
	<polygon style="fill:#002D6B;" points="435.863,54.284 442.863,69.33 442.863,420 435.863,457.716 276.293,457.716 276.293,54.284     "/>
	<rect x="109.723" style="fill:#EDF5FF;" width="333.14" height="69.33"/>
	<rect x="109.723" y="420" style="fill:#EDF5FF;" width="333.14" height="92"/>
	<rect x="276.293" style="fill:#DAEAFF;" width="166.57" height="69.33"/>
	<rect x="276.293" y="420" style="fill:#DAEAFF;" width="166.57" height="92"/>
	<rect x="261.543" y="452.5" style="fill:#AEADB3;" width="29.5" height="29.5"/>
	<rect x="276.293" y="452.5" style="fill:#8B8992;" width="14.75" height="29.5"/>
	<path style="fill:#FFC073;" d="M459.014,207h-52.302c-19.525,0-35.5-15.975-35.5-35.5v0c0-19.525,15.975-35.5,35.5-35.5h52.302   c19.525,0,35.5,15.975,35.5,35.5v0C494.514,191.025,478.539,207,459.014,207z"/>
	<path style="fill:#FFC073;" d="M459.014,278h-52.302c-19.525,0-35.5-15.975-35.5-35.5v0c0-19.525,15.975-35.5,35.5-35.5h52.302   c19.525,0,35.5,15.975,35.5,35.5v0C494.514,262.025,478.539,278,459.014,278z"/>
	<path style="fill:#FFC073;" d="M459.014,349h-52.302c-19.525,0-35.5-15.975-35.5-35.5v0c0-19.525,15.975-35.5,35.5-35.5h52.302   c19.525,0,35.5,15.975,35.5,35.5v0C494.514,333.025,478.539,349,459.014,349z"/>
	<path style="fill:#FFC073;" d="M459.014,420h-52.302c-19.525,0-35.5-15.975-35.5-35.5v0c0-19.525,15.975-35.5,35.5-35.5h52.302   c19.525,0,35.5,15.975,35.5,35.5v0C494.514,404.025,478.539,420,459.014,420z"/>
	<path style="fill:#FFD7A4;" d="M265.857,86.066c-10.466-25.628-38.997-38.172-64.956-28.551L116.445,88.81l-18.153,14.086V216.5   l138.607-63.514c12.795-4.901,22.866-14.482,28.407-27.047C270.942,113.158,271.138,98.998,265.857,86.066z"/>
</g>















</svg>
