<svg height="512pt" viewBox="-9 0 512 512" width="512pt" xmlns="http://www.w3.org/2000/svg"><path d="m4.78125 254.851562c3.140625 1.222657 6.804688.144532 8.785156-2.574218 8.683594-11.9375 30.277344-19.953125 53.726563-19.953125 23.160156 0 44.523437 7.828125 53.40625 19.53125 3.828125 5.035156 9.472656 3.976562 13.164062-.558594 9.261719-11.527344 30.054688-18.972656 52.972657-18.972656 11.027343 0 21.644531 1.777343 30.707031 4.902343v201.914063c0 8.144531-6.621094 14.769531-14.761719 14.769531-8.144531 0-14.769531-6.625-14.769531-14.769531v-23.21875c0-16.019531-13.027344-29.050781-29.039063-29.050781-16.019531 0-29.050781 13.03125-29.050781 29.050781v23.21875c0 40.175781 32.683594 72.859375 72.859375 72.859375s72.859375-32.683594 72.859375-72.859375v-201.910156c9.066406-3.128907 19.695313-4.90625 30.738281-4.90625 23.316406 0 44.796875 7.933593 53.570313 19.757812 3.023437 4.078125 9.167969 4.429688 12.25.195313 8.683593-11.9375 30.277343-19.957032 53.730469-19.957032 23.414062 0 44.996093 8.007813 53.699218 19.925782 4.402344 6.03125 14.324219 2.234375 13.511719-5.234375-.226563-2.109375-6.003906-52.199219-39.144531-102.949219-19.546875-29.933594-44.578125-53.792969-74.402344-70.921875-31.78125-18.25-69.027344-28.796875-110.949219-31.457031l-2.851562-24.582032c-1.132813-9.75-9.386719-17.101562-19.199219-17.101562s-18.066406 7.351562-19.199219 17.097656l-2.863281 24.648438c-41.640625 2.769531-78.683594 13.335937-110.351562 31.527344-29.839844 17.140624-54.929688 40.996093-74.574219 70.902343-33.316407 50.714844-39.316407 100.734375-39.558594 102.839844-.382813 3.382813 1.558594 6.601563 4.734375 7.835937zm255.859375 184.289063c0 31.902344-25.953125 57.859375-57.859375 57.859375-31.902344 0-57.859375-25.957031-57.859375-57.859375v-23.21875c0-7.75 6.304687-14.050781 14.050781-14.050781 7.742188 0 14.039063 6.300781 14.039063 14.050781v23.21875c0 16.414063 13.355469 29.769531 29.769531 29.769531 16.410156 0 29.761719-13.355468 29.761719-29.769531v-52.640625h28.097656zm0-67.640625h-28.097656v-126.855469c2.835937 1.996094 5.421875 4.335938 7.578125 7.058594 1.601562 2.023437 4.097656 3.347656 6.691406 3.390625 3.054688.054688 4.863281-1.652344 6.65625-3.875 2.042969-2.527344 4.519531-4.6875 7.171875-6.554688zm111.167969-285.53125c27.726562 15.855469 51.046875 37.996094 69.308594 65.804688 19.042968 28.996093 28.621093 58.300781 33.222656 76.964843-13.019532-7.203125-30.183594-11.414062-48.410156-11.414062-20.382813 0-39.429688 5.261719-52.839844 14.078125-.042969-.597656-.09375-1.195313-.136719-1.792969-.660156-8.777344-1.800781-17.519531-3.453125-26.167969-6.777344-35.449218-22.460938-68.789062-44.644531-97.195312-2.550781-3.265625-7.265625-3.84375-10.527344-1.296875-3.265625 2.550781-3.847656 7.265625-1.296875 10.527343 21.761719 27.875 36.890625 61.097657 42.664062 96.042969 1.042969 6.324219 1.800782 12.699219 2.285157 19.09375-13.328125-8.339843-31.839844-13.289062-51.601563-13.289062-17.910156 0-36.945312 3.785156-52.285156 13.699219v-169.597657c7.386719 4.785157 18.015625 12.347657 29.648438 22.773438 3.449218 3.085937 6.949218 6.402343 10.265624 9.738281 2.921876 2.933594 7.671876 2.945312 10.609376.023438 2.933593-2.921876 2.945312-7.667969.023437-10.605469-9.335937-9.378907-19.371094-18.039063-29.988281-25.941407-.121094-.089843-.25-.1875-.371094-.277343 36.78125 3.140625 69.492188 12.800781 97.527344 28.832031zm-132.097656-44.890625 2.582031-22.25c.253906-2.179687 2.101562-3.828125 4.300781-3.828125 2.195312 0 4.042969 1.648438 4.296875 3.828125l2.582031 22.234375c-.214844-.007812-9.394531-.078125-13.761718.015625zm-187.570313 111.332031c18.34375-27.921875 41.730469-50.171875 69.507813-66.128906 28.234374-16.214844 61.175781-25.980469 98.203124-29.144531-.109374.082031-.226562.167969-.339843.25-13.417969 9.925781-25.917969 21.183593-37.207031 33.476562-17.261719 18.800781-31.71875 40.246094-42.164063 63.558594-1.796875 4.011719-1.113281 9.074219 3.359375 10.941406 3.722656 1.644531 8.25-.113281 9.894531-3.828125 9.753907-22.058594 23.308594-42.390625 39.574219-60.183594 13.660156-14.9375 29.15625-28.3125 46.125-39.363281v169.019531c-3.367188-2.171874-7.082031-4.144531-11.121094-5.859374-12.882812-5.464844-27.199218-7.828126-41.136718-7.828126-19.417969 0-37.398438 4.628907-50.609376 12.613282.011719-.152344.023438-.304688.035157-.457032 1.078125-13.152343 3.328125-26.230468 6.8125-38.957031.003906-.011719.007812-.023437.007812-.035156 1.074219-4.117187-1.492187-8.4375-5.691406-9.3125-3.796875-.789063-7.757813 1.632813-8.78125 5.375-4.027344 14.742187-6.535156 29.921875-7.558594 45.167969-.003906.097656-.015625.195312-.019531.292968-13.453125-9.183593-32.902344-14.6875-53.738281-14.6875-18.203125 0-35.339844 4.195313-48.347657 11.375 4.652344-18.515624 14.257813-47.457031 33.195313-76.285156zm0 0"/></svg>